# xmcd
#
# Track frame offsets:
#	150
#	27890
#	43167
#	62815
#	85567
#	110212
#
# Disc length: 2215 seconds
#
# Revision: 1
# Processed by: cddbd v1.5.2PL0 Copyright (c) Steve Scherf et al.
# Submitted via: audiograbber 1.83.01
#
DISCID=4a08a506
DTITLE=AC/DC - Bon Scott's Last Qui Qui (Live Dates Vol.5) [CD1)
DYEAR=1979
DGENRE=Hard Rock
TTITLE0=Live Wire
TTITLE1=Shut Down In Flames
TTITLE2=Hell Ain't A Bad Place To Be
TTITLE3=Sin City
TTITLE4=Walk All Over You
TTITLE5=Bad Boy Boogie
EXTD=
EXTT0=
EXTT1=
EXTT2=
EXTT3=
EXTT4=
EXTT5=
PLAYORDER=
